<?xml version="1.0" encoding="utf-8"?>
<!-- Generator: Adobe Illustrator 23.0.1, SVG Export Plug-In . SVG Version: 6.00 Build 0)  -->
<svg version="1.1" id="Layer_1" xmlns="http://www.w3.org/2000/svg" xmlns:xlink="http://www.w3.org/1999/xlink" x="0px" y="0px"
	 viewBox="0 0 690.6 535.8" style="enable-background:new 0 0 690.6 535.8;" xml:space="preserve">
<style type="text/css">
	.st0{fill:#CEFAE5;}
	.st1{fill:none;stroke:#4E5A7D;stroke-width:6;stroke-linecap:round;stroke-linejoin:round;stroke-miterlimit:10;}
	.st2{opacity:0.2;}
	.st3{fill:none;stroke:#74AD91;stroke-width:6;stroke-linecap:round;stroke-linejoin:round;stroke-miterlimit:10;}
	.st4{fill:#FFFFFF;}
	.st5{fill:#D16F6F;}
	.st6{fill:#E08484;}
	.st7{fill:#D87171;}
	.st8{fill:#E99697;}
	.st9{fill:#4E5A7D;}
	.st10{fill:#C46565;}
	.st11{fill:none;stroke:#4E5A7D;stroke-width:4;stroke-linecap:round;stroke-linejoin:round;stroke-miterlimit:10;}
	.st12{fill:none;stroke:#4E5A7D;stroke-width:2;stroke-linecap:round;stroke-linejoin:round;stroke-miterlimit:10;}
</style>
<path id="XMLID_52_" class="st0" d="M229.3,532.6C106.4,532.5,22,350.4,19,341.4c-9.7-28.9-40.1-118.8,5.4-207.3
	C80.6,25,221.4-21.7,313,9.6c62.3,21.2,53.6,62,133.5,100.5c97.6,46.9,153.4,6.8,202.2,50.9c51.1,46.1,50.8,145.2,24.2,210.9
	c-36.3,89.6-76.2,143.2-165.1,160.8C433.2,532.8,331.1,532.7,229.3,532.6z"/>
<line id="XMLID_51_" class="st1" x1="102.5" y1="532.8" x2="582.4" y2="532.8"/>
<line id="XMLID_50_" class="st1" x1="609.5" y1="532.8" x2="658.9" y2="532.8"/>
<line id="XMLID_49_" class="st1" x1="48" y1="532.8" x2="82.6" y2="532.8"/>
<line id="XMLID_48_" class="st1" x1="676.3" y1="532.8" x2="684.8" y2="532.8"/>
<g id="XMLID_40_" class="st2">
	<polyline id="XMLID_47_" class="st3" points="319.7,274.2 319.7,305.1 257.9,305.1 	"/>
	<polyline id="XMLID_46_" class="st3" points="381.6,305.1 319.7,305.1 319.7,274.2 	"/>
	<rect id="XMLID_45_" x="288.8" y="305.1" class="st3" width="61.9" height="30.9"/>
	<polyline id="XMLID_44_" class="st3" points="337.3,366.9 319.7,366.9 319.7,336 381.6,336 	"/>
	<polyline id="XMLID_43_" class="st3" points="257.9,336 319.7,336 319.7,366.9 269.6,366.9 	"/>
	<polyline id="XMLID_42_" class="st3" points="236.8,305.1 288.8,305.1 288.8,336 257.9,336 	"/>
	<polyline id="XMLID_41_" class="st3" points="395.3,336 350.6,336 350.6,305.1 372.1,305.1 	"/>
</g>
<ellipse id="XMLID_39_" class="st1" cx="194.5" cy="448.2" rx="24" ry="44.3"/>
<path id="XMLID_38_" class="st4" d="M163.7,458.4H150c-6.1,0-11-4.9-11-11v-3.5c0-6.1,4.9-11,11-11h13.7V458.4z"/>
<path id="XMLID_37_" class="st1" d="M163.7,458.4H150c-6.1,0-11-4.9-11-11v-3.5c0-6.1,4.9-11,11-11h13.7V458.4z"/>
<path id="XMLID_36_" class="st5" d="M187.3,406.7h-19.1c-9.3,0-16.8,17.4-16.8,39c0,21.5,7.5,39,16.8,39c0.3,0,0.7,0,1-0.1h18.1
	V406.7z"/>
<path id="XMLID_35_" class="st1" d="M187.3,406.7h-19.1c-9.3,0-16.8,17.4-16.8,39c0,21.5,7.5,39,16.8,39c0.3,0,0.7,0,1-0.1h18.1
	V406.7z"/>
<path id="XMLID_34_" class="st6" d="M268.8,358.6h-53.6c-26,0-47.1,39-47.1,87.1s21.1,87.1,47.1,87.1c0.9,0,1.9-0.1,2.8-0.2h50.8
	L268.8,358.6L268.8,358.6z"/>
<path id="XMLID_33_" class="st6" d="M268.8,358.6h-53.6c-26,0-47.1,39-47.1,87.1s21.1,87.1,47.1,87.1c0.9,0,1.9-0.1,2.8-0.2h50.8
	L268.8,358.6L268.8,358.6z"/>
<path id="XMLID_32_" class="st6" d="M268.8,358.6h-53.6c-26,0-47.1,39-47.1,87.1s21.1,87.1,47.1,87.1c0.9,0,1.9-0.1,2.8-0.2h50.8
	L268.8,358.6L268.8,358.6z"/>
<path id="XMLID_31_" class="st7" d="M185.5,513.2c8.1,12.2,18.5,19.5,29.7,19.5c0.9,0,1.9-0.1,2.8-0.2h50.8v-19.3H185.5z"/>
<path id="XMLID_30_" class="st8" d="M185,378.8h83.8v-20.3h-53.6C203.7,358.6,193.1,366.2,185,378.8z"/>
<path id="XMLID_29_" class="st1" d="M268.8,358.6h-53.6c-26,0-47.1,39-47.1,87.1s21.1,87.1,47.1,87.1c0.9,0,1.9-0.1,2.8-0.2h50.8
	L268.8,358.6L268.8,358.6z"/>
<ellipse id="XMLID_28_" class="st7" cx="270.2" cy="445.7" rx="47.1" ry="87.1"/>
<ellipse id="XMLID_27_" class="st1" cx="270.2" cy="445.7" rx="47.1" ry="87.1"/>
<ellipse id="XMLID_26_" class="st9" cx="270.2" cy="445.7" rx="9.2" ry="20.4"/>
<ellipse id="XMLID_25_" class="st10" cx="270.2" cy="445.7" rx="33.1" ry="70.4"/>
<ellipse id="XMLID_24_" class="st5" cx="270.2" cy="445.7" rx="17.2" ry="33.1"/>
<ellipse id="XMLID_23_" class="st11" cx="270.2" cy="445.7" rx="17.2" ry="33.1"/>
<ellipse id="XMLID_22_" class="st1" cx="270.2" cy="445.7" rx="9.2" ry="20.4"/>
<ellipse id="XMLID_21_" class="st9" cx="270.2" cy="445.7" rx="9.2" ry="20.4"/>
<ellipse id="XMLID_20_" class="st11" cx="270.2" cy="445.7" rx="33.1" ry="70.4"/>
<path id="XMLID_19_" class="st4" d="M268.7,433c-1.3,3.4-2.2,7.8-2.2,12.6c0,4.9,0.9,9.2,2.2,12.6c0.6,0.1,1.2,0.2,1.8,0.2h174
	v-25.6h-174C269.8,432.9,269.3,432.9,268.7,433z"/>
<path id="XMLID_18_" class="st1" d="M268.7,433c-1.3,3.4-2.2,7.8-2.2,12.6c0,4.9,0.9,9.2,2.2,12.6c0.6,0.1,1.2,0.2,1.8,0.2h174
	v-25.6h-174C269.8,432.9,269.3,432.9,268.7,433z"/>
<path id="XMLID_17_" class="st6" d="M515.6,358.6H462c-26,0-47.1,39-47.1,87.1s21.1,87.1,47.1,87.1c0.9,0,1.9-0.1,2.8-0.2h50.8
	V358.6z"/>
<path id="XMLID_16_" class="st7" d="M433.8,513.2c8.1,12.2,18.5,19.5,29.7,19.5c0.9,0,1.9-0.1,2.8-0.2h50.8v-19.3H433.8z"/>
<path id="XMLID_15_" class="st8" d="M433.2,378.8H517v-20.3h-53.6C452,358.6,441.4,366.2,433.2,378.8z"/>
<path id="XMLID_14_" class="st1" d="M515.6,358.6H462c-26,0-47.1,39-47.1,87.1s21.1,87.1,47.1,87.1c0.9,0,1.9-0.1,2.8-0.2h50.8
	V358.6z"/>
<ellipse id="XMLID_13_" class="st6" cx="517.1" cy="445.7" rx="47.1" ry="87.1"/>
<ellipse id="XMLID_12_" class="st7" cx="517.1" cy="445.7" rx="47.1" ry="87.1"/>
<ellipse id="XMLID_11_" class="st1" cx="517.1" cy="445.7" rx="47.1" ry="87.1"/>
<ellipse id="XMLID_10_" class="st9" cx="517.1" cy="445.7" rx="9.2" ry="20.4"/>
<ellipse id="XMLID_9_" class="st10" cx="517.1" cy="445.7" rx="33.1" ry="73.1"/>
<ellipse id="XMLID_8_" class="st11" cx="517.1" cy="445.7" rx="33.1" ry="73.1"/>
<path id="XMLID_7_" class="st6" d="M549.2,411.9h-22c-10.7,0-19.4,15.8-19.4,35.3s8.7,35.3,19.4,35.3c0.4,0,0.8,0,1.2-0.1h20.9
	v-70.5H549.2z"/>
<path id="XMLID_6_" class="st1" d="M546.8,411.9h-20.2c-9.8,0-17.8,15.8-17.8,35.3s8,35.3,17.8,35.3c0.4,0,0.7,0,1.1-0.1h19.2
	L546.8,411.9L546.8,411.9z"/>
<ellipse id="XMLID_5_" class="st6" cx="547.3" cy="447.2" rx="16.9" ry="35.3"/>
<ellipse id="XMLID_4_" class="st1" cx="546.4" cy="447.2" rx="17.8" ry="35.3"/>
<path id="XMLID_3_" class="st4" d="M556.3,460L556.3,460c6.1,0,11-4.9,11-11v-3.5c0-6.1-4.9-11-11-11l0,0c-5.6,0-10.1,4.5-10.1,10.1
	v5.4C546.2,455.5,550.7,460,556.3,460z"/>
<path id="XMLID_2_" class="st1" d="M556.3,460L556.3,460c6.1,0,11-4.9,11-11v-3.5c0-6.1-4.9-11-11-11l0,0c-5.6,0-10.1,4.5-10.1,10.1
	v5.4C546.2,455.5,550.7,460,556.3,460z"/>
<path id="XMLID_1_" class="st12" d="M269.7,388.2h-3.8v5.9h2.8h-0.2c2.2,0,3.9,2.2,3.9,4.9s-1.8,4.9-3.9,4.9c-1.6,0-2.9-1.1-3.5-2.8
	"/>
</svg>
