<svg xmlns="http://www.w3.org/2000/svg" xmlns:xlink="http://www.w3.org/1999/xlink" viewBox="0 0 586.05 485.81"><defs><linearGradient id="a" x1="23.67" y1="408.34" x2="22.77" y2="356.84" gradientUnits="userSpaceOnUse"><stop offset="0" stop-color="#5e341e"/><stop offset="1" stop-color="#5e341e"/></linearGradient><linearGradient id="b" x1="68.03" y1="394.19" x2="62.93" y2="357.95" xlink:href="#a"/><clipPath id="c"><polygon points="61.84 363.83 61.25 363.48 45.41 356.43 0.65 368.36 19.62 376.59 61.84 363.83" style="fill:#5e341e;clip-rule:evenodd"/></clipPath><linearGradient id="d" x1="512.6" y1="432.48" x2="511.59" y2="374.62" xlink:href="#a"/><linearGradient id="e" x1="562.43" y1="416.58" x2="556.7" y2="375.86" xlink:href="#a"/><clipPath id="f"><polygon points="555.48 382.46 554.82 382.07 537.02 374.15 486.73 387.56 508.05 396.81 555.48 382.46" style="fill:#5e341e;clip-rule:evenodd"/></clipPath><clipPath id="g"><polygon points="340.63 305.17 387.91 324.97 387.91 389.31 340.59 360.04 340.63 305.17" style="fill:#33cc7f;clip-rule:evenodd"/></clipPath><clipPath id="h"><polygon points="288.08 318.77 334.99 342.74 334.96 408.42 334.43 408.39 288 381.55 288.08 318.77" style="fill:#47fda7;clip-rule:evenodd"/></clipPath><clipPath id="i"><polygon points="335.69 342.77 388.05 324.96 388.05 389.19 335.83 408.58 335.39 408.53 335.69 342.77" style="fill:#47fda7;clip-rule:evenodd"/></clipPath><linearGradient id="j" x1="340.63" y1="314.77" x2="387.3" y2="314.77" gradientUnits="userSpaceOnUse"><stop offset="0" stop-color="#cd9d6c"/><stop offset="1" stop-color="#cd9d6c"/></linearGradient><linearGradient id="k" x1="334.55" y1="340.8" x2="334.55" y2="8" gradientUnits="userSpaceOnUse"><stop offset="0" stop-color="#fff" stop-opacity="0.8"/><stop offset="0.68" stop-color="#fff" stop-opacity="0"/></linearGradient><clipPath id="l"><polygon points="204.63 297.17 251.91 316.97 251.91 381.31 204.59 352.04 204.63 297.17" style="fill:#33cc7f;clip-rule:evenodd"/></clipPath><clipPath id="m"><polygon points="152.08 310.77 198.99 334.74 198.96 400.42 198.43 400.39 152 373.55 152.08 310.77" style="fill:#47fda7;clip-rule:evenodd"/></clipPath><clipPath id="n"><polygon points="199.69 334.77 252.05 316.96 252.05 381.19 199.84 400.58 199.39 400.53 199.69 334.77" style="fill:#47fda7;clip-rule:evenodd"/></clipPath><linearGradient id="o" x1="204.63" y1="306.77" x2="251.3" y2="306.77" xlink:href="#j"/><linearGradient id="p" x1="198.55" y1="332.8" x2="198.55" y2="0" xlink:href="#k"/></defs><title>hero</title><ellipse cx="300.48" cy="371.48" rx="94.47" ry="247" transform="translate(-81.54 658.44) rotate(-87.94)" style="fill:#def9e8"/><polygon points="0.07 368.76 46.82 356.84 46.82 410.77 0 429.92 0.07 368.76" style="fill-rule:evenodd;fill:url(#a)"/><polygon points="46.79 356.67 88.83 374.27 88.83 436.82 46.75 410.79 46.79 356.67" style="fill-rule:evenodd;fill:url(#b)"/><polygon points="0.07 368.76 41.78 390.07 41.75 455.58 41.27 455.56 0 429.92 0.07 368.76" style="fill:#34489b;fill-rule:evenodd"/><polygon points="42.4 390.1 88.95 374.26 88.95 436.71 42.53 455.72 42.13 455.68 42.4 390.1" style="fill:#34489b;fill-rule:evenodd"/><path d="M41.32,389.86a1.29,1.29,0,0,0,.92.21,1,1,0,0,0,.68-.34l-.37,66a3.62,3.62,0,0,1-.7.09,1.26,1.26,0,0,1-.66-.31Z" style="fill:#24294e;fill-rule:evenodd"/><polygon points="67.57 379.57 67.53 380.04 88.04 374.46 89 374.27 87.67 374.31 67.57 379.57" style="fill:#24294e;fill-rule:evenodd"/><polygon points="88.81 374.62 88.22 374.27 64.28 365.33 24.44 377.33 41.39 388.45 42.69 390.16 88.81 374.62" style="fill:#24294e;fill-rule:evenodd"/><polygon points="61.84 363.83 61.25 363.48 45.41 356.43 0.65 368.36 19.62 376.59 61.84 363.83" style="fill:#5e341e;fill-rule:evenodd"/><g style="clip-path:url(#c)"><polygon points="20.9 361.44 22.23 362.17 41.2 369.82 45.13 368.15 22.08 360.68 20.9 361.44" style="fill:#a27558;fill-rule:evenodd"/></g><polygon points="89.05 374.23 87.89 374.39 67.54 379.57 22.9 361.7 45.88 356.21 46.8 356.29 89.05 374.23" style="fill:#34489b;fill-rule:evenodd"/><polygon points="42.02 389.86 43.27 388.7 66.53 379.81 21.12 361.55 1.54 367.58 0.27 368.33 42.02 389.86" style="fill:#34489b;fill-rule:evenodd"/><polygon points="67.54 380.04 23 362.04 23 361.67 67.56 379.58 67.54 380.04" style="fill:#24294e;fill-rule:evenodd"/><polygon points="66.52 379.8 66.49 380.12 43.89 388.62 41.83 390.13 42.36 389.51 43.64 388.39 66.52 379.8" style="fill:#24294e;fill-rule:evenodd"/><polygon points="42.15 389.77 0.27 368.33 0.07 368.76 41.88 390.15 42.15 389.77" style="fill:#24294e;fill-rule:evenodd"/><polygon points="486.08 388.01 538.61 374.62 538.61 435.21 486 456.72 486.08 388.01" style="fill-rule:evenodd;fill:url(#d)"/><polygon points="538.57 374.42 585.8 394.2 585.8 464.47 538.53 435.23 538.57 374.42" style="fill-rule:evenodd;fill:url(#e)"/><polygon points="486.08 388.01 532.94 411.95 532.9 485.56 532.37 485.53 486 456.72 486.08 388.01" style="fill:#5e72e3;fill-rule:evenodd"/><polygon points="533.63 411.99 585.94 394.19 585.94 464.35 533.78 485.71 533.33 485.67 533.63 411.99" style="fill:#5e72e3;fill-rule:evenodd"/><path d="M532.42,411.71a1.41,1.41,0,0,0,1,.24,1.08,1.08,0,0,0,.76-.38l-.41,74.14a4.3,4.3,0,0,1-.79.1,1.46,1.46,0,0,1-.75-.34Z" style="fill:#3c4fb4;fill-rule:evenodd"/><polygon points="561.91 400.16 561.87 400.68 584.91 394.41 585.99 394.2 584.5 394.24 561.91 400.16" style="fill:#3c4fb4;fill-rule:evenodd"/><polygon points="585.78 394.59 585.11 394.2 558.22 384.15 513.46 397.63 532.5 410.13 533.96 412.06 585.78 394.59" style="fill:#3c4fb4;fill-rule:evenodd"/><polygon points="555.48 382.46 554.82 382.07 537.02 374.15 486.73 387.56 508.05 396.81 555.48 382.46" style="fill:#5e341e;fill-rule:evenodd"/><g style="clip-path:url(#f)"><polygon points="509.48 379.79 510.98 380.6 532.29 389.2 536.7 387.32 510.81 378.93 509.48 379.79" style="fill:#a27558;fill-rule:evenodd"/></g><polygon points="586.05 394.16 584.74 394.33 561.88 400.15 511.73 380.08 537.54 373.9 538.59 374 586.05 394.16" style="fill:#5e72e3;fill-rule:evenodd"/><polygon points="533.22 411.71 534.61 410.41 560.75 400.42 509.73 379.9 487.74 386.68 486.3 387.53 533.22 411.71" style="fill:#5e72e3;fill-rule:evenodd"/><polygon points="561.88 400.68 511.84 380.46 511.84 380.04 561.9 400.16 561.88 400.68" style="fill:#3c4fb4;fill-rule:evenodd"/><polygon points="560.74 400.41 560.71 400.77 535.32 410.32 533 412.02 533.59 411.31 535.04 410.07 560.74 400.41" style="fill:#3c4fb4;fill-rule:evenodd"/><polygon points="533.35 411.61 486.3 387.52 486.07 388.01 533.05 412.04 533.35 411.61" style="fill:#3c4fb4;fill-rule:evenodd"/><polygon points="288.08 318.77 340.67 305.36 340.67 360.02 288 381.55 288.08 318.77" style="fill:#33cc7f;fill-rule:evenodd"/><polygon points="340.63 305.17 387.91 324.97 387.91 389.31 340.59 360.04 340.63 305.17" style="fill:#33cc7f;fill-rule:evenodd"/><g style="clip-path:url(#g)"><path d="M339.51,304.2a1.41,1.41,0,0,0,1,.24,1.08,1.08,0,0,0,.76-.38l-.42,74.22a4.13,4.13,0,0,1-.78.1,1.46,1.46,0,0,1-.75-.34Z" style="fill:#47fda7;fill-rule:evenodd"/></g><polygon points="288.08 318.77 334.99 342.74 334.96 408.42 334.43 408.39 288 381.55 288.08 318.77" style="fill:#47fda7;fill-rule:evenodd"/><g style="clip-path:url(#h)"><polygon points="284.72 318.28 284.72 330.75 326.16 355.42 336.55 341.28 284.72 318.28" style="fill:#33cc7f;fill-rule:evenodd"/></g><polygon points="335.69 342.77 388.05 324.96 388.05 389.19 335.83 408.58 335.39 408.53 335.69 342.77" style="fill:#47fda7;fill-rule:evenodd"/><g style="clip-path:url(#i)"><path d="M336,343.08s6.79,8.74,10.39,11.37c.25.18,52.94-18.43,52.94-18.43L385.2,319.53,333.78,338.1Z" style="fill:#33cc7f;fill-rule:evenodd"/></g><path d="M334.47,342.5a1.46,1.46,0,0,0,1,.24,1.18,1.18,0,0,0,.77-.38l-.42,66.21a4.13,4.13,0,0,1-.78.1,1.42,1.42,0,0,1-.75-.34Z" style="fill:#33cc7f;fill-rule:evenodd"/><polygon points="334.59 342.48 332.77 342.26 302.68 343.46 258.06 317.68 287.44 318.83 289.38 319.39 334.59 342.48" style="fill:#47fda7;fill-rule:evenodd"/><polygon points="335.5 343.05 336.17 342.34 357.31 340.12 401.52 323.76 387.91 325.07 386.8 325.07 336.06 342.06 335.5 343.05" style="fill:#47fda7;fill-rule:evenodd"/><path d="M334.63,342.5a16.57,16.57,0,0,0-2.44-.72c-1.09-.2-29.53,1.36-29.53,1.36v.68l29.56-1.56,2.28.48a3,3,0,0,0,.69.24,1.9,1.9,0,0,0,1-.2.62.62,0,0,0,.25-.23l21-2v-.65l-20.77,2.06a1.45,1.45,0,0,0-.72.24c-.24.2-.08.45-.52.41Z" style="fill:#33cc7f;fill-rule:evenodd"/><polygon points="302.66 343.14 258.06 317.68 258.06 318.16 302.66 343.82 302.66 343.14" style="fill:#fff;fill-rule:evenodd"/><polygon points="357.37 339.87 401.48 323.75 401.44 324.17 357.34 340.52 357.37 339.87" style="fill:#fff;fill-rule:evenodd"/><polygon points="386.93 324.6 388.32 323.29 408.05 313.89 357.41 295 342.2 303.65 340.82 305.17 386.93 324.6" style="fill:#47fda7;fill-rule:evenodd"/><polygon points="387.3 324.25 341.05 304.92 340.63 305.17 386.97 324.62 387.3 324.25" style="fill-rule:evenodd;fill:url(#j)"/><polygon points="408.04 313.88 408 314.24 388.51 323.54 386.65 324.95 386.93 324.6 388.23 323.29 408.04 313.88" style="fill:#fff;fill-rule:evenodd"/><polygon points="340.61 305.45 340.15 304.44 328.07 286.64 274.8 297.98 287.85 317.73 288.27 318.97 340.61 305.45" style="fill:#47fda7;fill-rule:evenodd"/><path d="M288.21,318.9a7.48,7.48,0,0,0-.45-1.46c-.21-.35-12.88-19.47-12.88-19.47l0,.46,12.5,19a4.25,4.25,0,0,1,.39.87c.07.31.1.55.1.55Z" style="fill:#fff;fill-rule:evenodd"/><polygon points="386.97 324.57 340.73 305.25 340.3 305.49 386.64 324.95 386.97 324.57" style="fill:#fff;fill-rule:evenodd"/><polygon points="386.97 325.08 340.48 305.47 340.27 305.68 386.35 325.2 386.97 325.08" style="fill:#fff;fill-rule:evenodd"/><polygon points="293.05 321.51 333.29 340.8 376.05 326.55 376.05 8 293.05 8 293.05 321.51" style="fill:url(#k)"/><polygon points="152.08 310.77 204.66 297.36 204.66 352.02 152 373.55 152.08 310.77" style="fill:#33cc7f;fill-rule:evenodd"/><polygon points="204.63 297.17 251.91 316.97 251.91 381.31 204.59 352.04 204.63 297.17" style="fill:#33cc7f;fill-rule:evenodd"/><g style="clip-path:url(#l)"><path d="M203.51,296.2a1.41,1.41,0,0,0,1,.24,1.08,1.08,0,0,0,.76-.38l-.42,74.22a4.13,4.13,0,0,1-.78.1,1.46,1.46,0,0,1-.75-.34Z" style="fill:#47fda7;fill-rule:evenodd"/></g><polygon points="152.08 310.77 198.99 334.74 198.96 400.42 198.43 400.39 152 373.55 152.08 310.77" style="fill:#47fda7;fill-rule:evenodd"/><g style="clip-path:url(#m)"><polygon points="148.72 310.28 148.72 322.75 190.16 347.42 200.55 333.28 148.72 310.28" style="fill:#33cc7f;fill-rule:evenodd"/></g><polygon points="199.69 334.77 252.05 316.96 252.05 381.19 199.84 400.58 199.39 400.53 199.69 334.77" style="fill:#47fda7;fill-rule:evenodd"/><g style="clip-path:url(#n)"><path d="M200,335.08s6.79,8.74,10.39,11.37c.25.18,52.94-18.43,52.94-18.43L249.2,311.53,197.78,330.1Z" style="fill:#33cc7f;fill-rule:evenodd"/></g><path d="M198.47,334.5a1.46,1.46,0,0,0,1,.24,1.18,1.18,0,0,0,.77-.38l-.42,66.21a4.13,4.13,0,0,1-.78.1,1.42,1.42,0,0,1-.75-.34Z" style="fill:#33cc7f;fill-rule:evenodd"/><polygon points="198.59 334.48 196.78 334.26 166.68 335.46 122.06 309.68 151.44 310.83 153.38 311.39 198.59 334.48" style="fill:#47fda7;fill-rule:evenodd"/><polygon points="199.5 335.05 200.17 334.34 221.31 332.12 265.52 315.76 251.91 317.07 250.8 317.07 200.06 334.06 199.5 335.05" style="fill:#47fda7;fill-rule:evenodd"/><path d="M198.63,334.5a16.57,16.57,0,0,0-2.44-.72c-1.09-.2-29.53,1.36-29.53,1.36v.68l29.56-1.56,2.28.48a3,3,0,0,0,.69.24,1.9,1.9,0,0,0,1-.2.62.62,0,0,0,.25-.23l21-2v-.65l-20.77,2.06a1.45,1.45,0,0,0-.72.24c-.24.2-.08.45-.52.41Z" style="fill:#33cc7f;fill-rule:evenodd"/><polygon points="166.66 335.14 122.06 309.68 122.06 310.16 166.66 335.82 166.66 335.14" style="fill:#fff;fill-rule:evenodd"/><polygon points="221.37 331.87 265.48 315.75 265.44 316.17 221.34 332.52 221.37 331.87" style="fill:#fff;fill-rule:evenodd"/><polygon points="250.93 316.6 252.32 315.29 272.05 305.89 221.41 287 206.2 295.65 204.82 297.17 250.93 316.6" style="fill:#47fda7;fill-rule:evenodd"/><polygon points="251.3 316.25 205.05 296.92 204.63 297.17 250.97 316.62 251.3 316.25" style="fill-rule:evenodd;fill:url(#o)"/><polygon points="272.04 305.88 272 306.24 252.51 315.54 250.65 316.95 250.93 316.6 252.23 315.29 272.04 305.88" style="fill:#fff;fill-rule:evenodd"/><polygon points="204.61 297.45 204.16 296.44 192.07 278.64 138.8 289.98 151.85 309.73 152.27 310.97 204.61 297.45" style="fill:#47fda7;fill-rule:evenodd"/><path d="M152.21,310.9a7.48,7.48,0,0,0-.45-1.46c-.21-.35-12.88-19.47-12.88-19.47l0,.46,12.5,19a4.25,4.25,0,0,1,.39.87c.07.31.1.55.1.55Z" style="fill:#fff;fill-rule:evenodd"/><polygon points="250.97 316.57 204.72 297.25 204.3 297.49 250.64 316.95 250.97 316.57" style="fill:#fff;fill-rule:evenodd"/><polygon points="250.97 317.08 204.48 297.47 204.27 297.68 250.35 317.2 250.97 317.08" style="fill:#fff;fill-rule:evenodd"/><polygon points="157.05 313.51 197.29 332.8 240.05 318.55 240.05 0 157.05 0 157.05 313.51" style="fill:url(#p)"/></svg>