<svg xmlns="http://www.w3.org/2000/svg" viewBox="0 0 360 156.9"><title>ram</title><path d="M357,44.5V15.9a6,6,0,0,0-6-6H9a6,6,0,0,0-6,6V44.5a24,24,0,0,1,0,48v59.4a2,2,0,0,0,2,2H209.4v-23h16.5v23H355a2,2,0,0,0,2-2V92.5a24,24,0,0,1,0-48ZM22.2,130.9a9,9,0,1,1,9-9A9,9,0,0,1,22.2,130.9Zm316-18a9,9,0,1,1-9,9A9,9,0,0,1,338.2,112.9Z" style="fill:#353535;stroke:#353535;stroke-linecap:round;stroke-linejoin:round;stroke-width:6px;opacity:0.3100000023841858;isolation:isolate"/><path d="M357,37.5V8.9a6,6,0,0,0-6-6H9a6,6,0,0,0-6,6V37.5a24,24,0,0,1,0,48v59.4a2,2,0,0,0,2,2H209.4v-23h16.5v23H355a2,2,0,0,0,2-2V85.5a24,24,0,0,1,0-48ZM22.2,123.9a9,9,0,1,1,9-9A9,9,0,0,1,22.2,123.9Zm316-18a9,9,0,1,1-9,9A9,9,0,0,1,338.2,105.9Z" style="fill:#14b0bf"/><path d="M357,11.9V6.5c0-2-2.7-3.6-6-3.6H9c-3.3,0-6,1.6-6,3.6v5.4Z" style="fill:#24c1c9"/><rect x="226" y="120.9" width="131" height="26" style="fill:#353535"/><line x1="41.8" y1="108" x2="318.2" y2="108" style="fill:none;stroke:#353535;stroke-linecap:round;stroke-linejoin:round;stroke-width:7px"/><circle cx="338.2" cy="114.9" r="9" style="fill:none;stroke:#194254;stroke-linecap:round;stroke-linejoin:round;stroke-width:6px"/><rect x="3" y="120.9" width="206.4" height="26" style="fill:#353535"/><path d="M199.8,146.9h-7.2a.9.9,0,0,1-.9-.9V127.9a3,3,0,0,1,3-3h3a3,3,0,0,1,3,3V146C200.8,146.5,200.4,146.9,199.8,146.9Z" style="fill:#fce18d"/><path d="M185.8,146.9h-7.2a.9.9,0,0,1-.9-.9V127.9a3,3,0,0,1,3-3h3a3,3,0,0,1,3,3V146C186.8,146.5,186.4,146.9,185.8,146.9Z" style="fill:#fce18d"/><path d="M171.8,146.9h-7.2a.9.9,0,0,1-.9-.9V127.9a3,3,0,0,1,3-3h3a3,3,0,0,1,3,3V146C172.8,146.5,172.4,146.9,171.8,146.9Z" style="fill:#fce18d"/><path d="M157.8,146.9h-7.2a.9.9,0,0,1-.9-.9V127.9a3,3,0,0,1,3-3h3a3,3,0,0,1,3,3V146C158.8,146.5,158.4,146.9,157.8,146.9Z" style="fill:#fce18d"/><path d="M143.8,146.9h-7.2a.9.9,0,0,1-.9-.9V127.9a3,3,0,0,1,3-3h3a3,3,0,0,1,3,3V146C144.8,146.5,144.4,146.9,143.8,146.9Z" style="fill:#fce18d"/><path d="M129.8,146.9h-7.2a.9.9,0,0,1-.9-.9V127.9a3,3,0,0,1,3-3h3a3,3,0,0,1,3,3V146C130.8,146.5,130.4,146.9,129.8,146.9Z" style="fill:#fce18d"/><path d="M115.8,146.9h-7.2a.9.9,0,0,1-.9-.9V127.9a3,3,0,0,1,3-3h3a3,3,0,0,1,3,3V146C116.8,146.5,116.4,146.9,115.8,146.9Z" style="fill:#fce18d"/><path d="M101.8,146.9H94.6a.9.9,0,0,1-.9-.9V127.9a3,3,0,0,1,3-3h3a3,3,0,0,1,3,3V146C102.8,146.5,102.4,146.9,101.8,146.9Z" style="fill:#fce18d"/><path d="M87.8,146.9H80.6a.9.9,0,0,1-.9-.9V127.9a3,3,0,0,1,3-3h3a3,3,0,0,1,3,3V146C88.8,146.5,88.4,146.9,87.8,146.9Z" style="fill:#fce18d"/><path d="M73.8,146.9H66.6a.9.9,0,0,1-.9-.9V127.9a3,3,0,0,1,3-3h3a3,3,0,0,1,3,3V146C74.8,146.5,74.4,146.9,73.8,146.9Z" style="fill:#fce18d"/><path d="M59.8,146.9H52.6a.9.9,0,0,1-.9-.9V127.9a3,3,0,0,1,3-3h3a3,3,0,0,1,3,3V146C60.8,146.5,60.4,146.9,59.8,146.9Z" style="fill:#fce18d"/><path d="M45.8,146.9H38.6a.9.9,0,0,1-.9-.9V127.9a3,3,0,0,1,3-3h3a3,3,0,0,1,3,3V146C46.8,146.5,46.4,146.9,45.8,146.9Z" style="fill:#fce18d"/><path d="M327.6,146.9h-9v-19a3,3,0,0,1,3-3h3a3,3,0,0,1,3,3Z" style="fill:#fce18d"/><path d="M313.6,146.9h-9v-19a3,3,0,0,1,3-3h3a3,3,0,0,1,3,3Z" style="fill:#fce18d"/><path d="M299.6,146.9h-9v-19a3,3,0,0,1,3-3h3a3,3,0,0,1,3,3Z" style="fill:#fce18d"/><path d="M285.6,146.9h-9v-19a3,3,0,0,1,3-3h3a3,3,0,0,1,3,3Z" style="fill:#fce18d"/><path d="M271.6,146.9h-9v-19a3,3,0,0,1,3-3h3a3,3,0,0,1,3,3Z" style="fill:#fce18d"/><path d="M257.6,146.9h-9v-19a3,3,0,0,1,3-3h3a3,3,0,0,1,3,3Z" style="fill:#fce18d"/><path d="M243.6,146.9h-9v-19a3,3,0,0,1,3-3h3a3,3,0,0,1,3,3Z" style="fill:#fce18d"/><path d="M333,61.5a23.92,23.92,0,0,1,20.3-23.7,4.2,4.2,0,0,0,3.7-4.1V13.2A10.24,10.24,0,0,0,346.8,3H13.2A10.24,10.24,0,0,0,3,13.2V33.7a4.2,4.2,0,0,0,3.7,4.1A24,24,0,0,1,27,61.5,23.92,23.92,0,0,1,6.7,85.2,4.2,4.2,0,0,0,3,89.3v51.4a6.23,6.23,0,0,0,6.2,6.2h196a4.23,4.23,0,0,0,4.2-4.2V123.9h16.5v18.8a4.23,4.23,0,0,0,4.2,4.2H350.8a6.23,6.23,0,0,0,6.2-6.2V89.3a4.2,4.2,0,0,0-3.7-4.1A24,24,0,0,1,333,61.5Z" style="fill:none;stroke:#194254;stroke-linecap:round;stroke-linejoin:round;stroke-width:6px"/><circle cx="22.2" cy="114.9" r="9" style="fill:none;stroke:#194254;stroke-linecap:round;stroke-linejoin:round;stroke-width:6px"/><path d="M85.8,94.5h-34a4,4,0,0,1-4-4v-50a4,4,0,0,1,4-4h34a4,4,0,0,1,4,4v50A4,4,0,0,1,85.8,94.5Z" style="fill:#2c5871;opacity:0.20000000298023224;isolation:isolate"/><line x1="41.8" y1="85.5" x2="47.8" y2="85.5" style="fill:none;stroke:#eae9da;stroke-linecap:round;stroke-linejoin:round;stroke-width:4px"/><line x1="41.8" y1="77.5" x2="47.8" y2="77.5" style="fill:none;stroke:#eae9da;stroke-linecap:round;stroke-linejoin:round;stroke-width:4px"/><line x1="41.8" y1="69.5" x2="47.8" y2="69.5" style="fill:none;stroke:#eae9da;stroke-linecap:round;stroke-linejoin:round;stroke-width:4px"/><line x1="41.8" y1="61.5" x2="47.8" y2="61.5" style="fill:none;stroke:#eae9da;stroke-linecap:round;stroke-linejoin:round;stroke-width:4px"/><line x1="41.8" y1="53.5" x2="47.8" y2="53.5" style="fill:none;stroke:#eae9da;stroke-linecap:round;stroke-linejoin:round;stroke-width:4px"/><line x1="41.8" y1="45.5" x2="47.8" y2="45.5" style="fill:none;stroke:#eae9da;stroke-linecap:round;stroke-linejoin:round;stroke-width:4px"/><line x1="41.8" y1="37.5" x2="47.8" y2="37.5" style="fill:none;stroke:#eae9da;stroke-linecap:round;stroke-linejoin:round;stroke-width:4px"/><line x1="89.8" y1="85.5" x2="95.8" y2="85.5" style="fill:none;stroke:#eae9da;stroke-linecap:round;stroke-linejoin:round;stroke-width:4px"/><line x1="89.8" y1="77.5" x2="95.8" y2="77.5" style="fill:none;stroke:#eae9da;stroke-linecap:round;stroke-linejoin:round;stroke-width:4px"/><line x1="89.8" y1="69.5" x2="95.8" y2="69.5" style="fill:none;stroke:#eae9da;stroke-linecap:round;stroke-linejoin:round;stroke-width:4px"/><line x1="89.8" y1="61.5" x2="95.8" y2="61.5" style="fill:none;stroke:#eae9da;stroke-linecap:round;stroke-linejoin:round;stroke-width:4px"/><line x1="89.8" y1="53.5" x2="95.8" y2="53.5" style="fill:none;stroke:#eae9da;stroke-linecap:round;stroke-linejoin:round;stroke-width:4px"/><line x1="89.8" y1="45.5" x2="95.8" y2="45.5" style="fill:none;stroke:#eae9da;stroke-linecap:round;stroke-linejoin:round;stroke-width:4px"/><line x1="89.8" y1="37.5" x2="95.8" y2="37.5" style="fill:none;stroke:#eae9da;stroke-linecap:round;stroke-linejoin:round;stroke-width:4px"/><path d="M85.8,90.5h-34a4,4,0,0,1-4-4v-50a4,4,0,0,1,4-4h34a4,4,0,0,1,4,4v50A4,4,0,0,1,85.8,90.5Z" style="fill:#2c5871"/><path d="M51.8,84.8V38.2a1.69,1.69,0,0,1,1.7-1.7H84.1a1.69,1.69,0,0,1,1.7,1.7V84.8a1.69,1.69,0,0,1-1.7,1.7H53.5A1.75,1.75,0,0,1,51.8,84.8Z" style="fill:#3d6d82"/><polyline points="58.5 47.6 58.5 61.5 58.5 74.9" style="fill:none;stroke:#eae9da;stroke-linecap:round;stroke-linejoin:round;stroke-width:2px"/><line x1="62.9" y1="53.5" x2="62.9" y2="69" style="fill:none;stroke:#eae9da;stroke-linecap:round;stroke-linejoin:round"/><line x1="80.3" y1="49.2" x2="80.3" y2="73.2" style="fill:none;stroke:#eae9da;stroke-linecap:round;stroke-linejoin:round"/><path d="M159.9,94.5h-34a4,4,0,0,1-4-4v-50a4,4,0,0,1,4-4h34a4,4,0,0,1,4,4v50A4,4,0,0,1,159.9,94.5Z" style="fill:#2c5871;opacity:0.20000000298023224;isolation:isolate"/><line x1="115.9" y1="85.5" x2="121.9" y2="85.5" style="fill:none;stroke:#eae9da;stroke-linecap:round;stroke-linejoin:round;stroke-width:4px"/><line x1="115.9" y1="77.5" x2="121.9" y2="77.5" style="fill:none;stroke:#eae9da;stroke-linecap:round;stroke-linejoin:round;stroke-width:4px"/><line x1="115.9" y1="69.5" x2="121.9" y2="69.5" style="fill:none;stroke:#eae9da;stroke-linecap:round;stroke-linejoin:round;stroke-width:4px"/><line x1="115.9" y1="61.5" x2="121.9" y2="61.5" style="fill:none;stroke:#eae9da;stroke-linecap:round;stroke-linejoin:round;stroke-width:4px"/><line x1="115.9" y1="53.5" x2="121.9" y2="53.5" style="fill:none;stroke:#eae9da;stroke-linecap:round;stroke-linejoin:round;stroke-width:4px"/><line x1="115.9" y1="45.5" x2="121.9" y2="45.5" style="fill:none;stroke:#eae9da;stroke-linecap:round;stroke-linejoin:round;stroke-width:4px"/><line x1="115.9" y1="37.5" x2="121.9" y2="37.5" style="fill:none;stroke:#eae9da;stroke-linecap:round;stroke-linejoin:round;stroke-width:4px"/><line x1="163.9" y1="85.5" x2="169.9" y2="85.5" style="fill:none;stroke:#eae9da;stroke-linecap:round;stroke-linejoin:round;stroke-width:4px"/><line x1="163.9" y1="77.5" x2="169.9" y2="77.5" style="fill:none;stroke:#eae9da;stroke-linecap:round;stroke-linejoin:round;stroke-width:4px"/><line x1="163.9" y1="69.5" x2="169.9" y2="69.5" style="fill:none;stroke:#eae9da;stroke-linecap:round;stroke-linejoin:round;stroke-width:4px"/><line x1="163.9" y1="61.5" x2="169.9" y2="61.5" style="fill:none;stroke:#eae9da;stroke-linecap:round;stroke-linejoin:round;stroke-width:4px"/><line x1="163.9" y1="53.5" x2="169.9" y2="53.5" style="fill:none;stroke:#eae9da;stroke-linecap:round;stroke-linejoin:round;stroke-width:4px"/><line x1="163.9" y1="45.5" x2="169.9" y2="45.5" style="fill:none;stroke:#eae9da;stroke-linecap:round;stroke-linejoin:round;stroke-width:4px"/><line x1="163.9" y1="37.5" x2="169.9" y2="37.5" style="fill:none;stroke:#eae9da;stroke-linecap:round;stroke-linejoin:round;stroke-width:4px"/><path d="M159.9,90.5h-34a4,4,0,0,1-4-4v-50a4,4,0,0,1,4-4h34a4,4,0,0,1,4,4v50A4,4,0,0,1,159.9,90.5Z" style="fill:#2c5871"/><path d="M125.9,84.8V38.2a1.69,1.69,0,0,1,1.7-1.7h30.6a1.69,1.69,0,0,1,1.7,1.7V84.8a1.69,1.69,0,0,1-1.7,1.7H127.6A1.75,1.75,0,0,1,125.9,84.8Z" style="fill:#3d6d82"/><polyline points="132.6 47.6 132.6 61.5 132.6 74.9" style="fill:none;stroke:#eae9da;stroke-linecap:round;stroke-linejoin:round;stroke-width:2px"/><line x1="137.1" y1="53.5" x2="137.1" y2="69" style="fill:none;stroke:#eae9da;stroke-linecap:round;stroke-linejoin:round"/><line x1="154.4" y1="49.2" x2="154.4" y2="73.2" style="fill:none;stroke:#eae9da;stroke-linecap:round;stroke-linejoin:round"/><path d="M234.1,94.5h-34a4,4,0,0,1-4-4v-50a4,4,0,0,1,4-4h34a4,4,0,0,1,4,4v50A4,4,0,0,1,234.1,94.5Z" style="fill:#2c5871;opacity:0.20000000298023224;isolation:isolate"/><line x1="190.1" y1="85.5" x2="196.1" y2="85.5" style="fill:none;stroke:#eae9da;stroke-linecap:round;stroke-linejoin:round;stroke-width:4px"/><line x1="190.1" y1="77.5" x2="196.1" y2="77.5" style="fill:none;stroke:#eae9da;stroke-linecap:round;stroke-linejoin:round;stroke-width:4px"/><line x1="190.1" y1="69.5" x2="196.1" y2="69.5" style="fill:none;stroke:#eae9da;stroke-linecap:round;stroke-linejoin:round;stroke-width:4px"/><line x1="190.1" y1="61.5" x2="196.1" y2="61.5" style="fill:none;stroke:#eae9da;stroke-linecap:round;stroke-linejoin:round;stroke-width:4px"/><line x1="190.1" y1="53.5" x2="196.1" y2="53.5" style="fill:none;stroke:#eae9da;stroke-linecap:round;stroke-linejoin:round;stroke-width:4px"/><line x1="190.1" y1="45.5" x2="196.1" y2="45.5" style="fill:none;stroke:#eae9da;stroke-linecap:round;stroke-linejoin:round;stroke-width:4px"/><line x1="190.1" y1="37.5" x2="196.1" y2="37.5" style="fill:none;stroke:#eae9da;stroke-linecap:round;stroke-linejoin:round;stroke-width:4px"/><line x1="238.1" y1="85.5" x2="244.1" y2="85.5" style="fill:none;stroke:#eae9da;stroke-linecap:round;stroke-linejoin:round;stroke-width:4px"/><line x1="238.1" y1="77.5" x2="244.1" y2="77.5" style="fill:none;stroke:#eae9da;stroke-linecap:round;stroke-linejoin:round;stroke-width:4px"/><line x1="238.1" y1="69.5" x2="244.1" y2="69.5" style="fill:none;stroke:#eae9da;stroke-linecap:round;stroke-linejoin:round;stroke-width:4px"/><line x1="238.1" y1="61.5" x2="244.1" y2="61.5" style="fill:none;stroke:#eae9da;stroke-linecap:round;stroke-linejoin:round;stroke-width:4px"/><line x1="238.1" y1="53.5" x2="244.1" y2="53.5" style="fill:none;stroke:#eae9da;stroke-linecap:round;stroke-linejoin:round;stroke-width:4px"/><line x1="238.1" y1="45.5" x2="244.1" y2="45.5" style="fill:none;stroke:#eae9da;stroke-linecap:round;stroke-linejoin:round;stroke-width:4px"/><line x1="238.1" y1="37.5" x2="244.1" y2="37.5" style="fill:none;stroke:#eae9da;stroke-linecap:round;stroke-linejoin:round;stroke-width:4px"/><path d="M234.1,90.5h-34a4,4,0,0,1-4-4v-50a4,4,0,0,1,4-4h34a4,4,0,0,1,4,4v50A4,4,0,0,1,234.1,90.5Z" style="fill:#2c5871"/><path d="M200.1,84.8V38.2a1.69,1.69,0,0,1,1.7-1.7h30.6a1.69,1.69,0,0,1,1.7,1.7V84.8a1.69,1.69,0,0,1-1.7,1.7H201.8A1.69,1.69,0,0,1,200.1,84.8Z" style="fill:#3d6d82"/><polyline points="206.8 47.6 206.8 61.5 206.8 74.9" style="fill:none;stroke:#eae9da;stroke-linecap:round;stroke-linejoin:round;stroke-width:2px"/><line x1="211.2" y1="53.5" x2="211.2" y2="69" style="fill:none;stroke:#eae9da;stroke-linecap:round;stroke-linejoin:round"/><line x1="228.6" y1="49.2" x2="228.6" y2="73.2" style="fill:none;stroke:#eae9da;stroke-linecap:round;stroke-linejoin:round"/><path d="M308.2,94.5h-34a4,4,0,0,1-4-4v-50a4,4,0,0,1,4-4h34a4,4,0,0,1,4,4v50A4,4,0,0,1,308.2,94.5Z" style="fill:#2c5871;opacity:0.20000000298023224;isolation:isolate"/><line x1="264.2" y1="85.5" x2="270.2" y2="85.5" style="fill:none;stroke:#eae9da;stroke-linecap:round;stroke-linejoin:round;stroke-width:4px"/><line x1="264.2" y1="77.5" x2="270.2" y2="77.5" style="fill:none;stroke:#eae9da;stroke-linecap:round;stroke-linejoin:round;stroke-width:4px"/><line x1="264.2" y1="69.5" x2="270.2" y2="69.5" style="fill:none;stroke:#eae9da;stroke-linecap:round;stroke-linejoin:round;stroke-width:4px"/><line x1="264.2" y1="61.5" x2="270.2" y2="61.5" style="fill:none;stroke:#eae9da;stroke-linecap:round;stroke-linejoin:round;stroke-width:4px"/><line x1="264.2" y1="53.5" x2="270.2" y2="53.5" style="fill:none;stroke:#eae9da;stroke-linecap:round;stroke-linejoin:round;stroke-width:4px"/><line x1="264.2" y1="45.5" x2="270.2" y2="45.5" style="fill:none;stroke:#eae9da;stroke-linecap:round;stroke-linejoin:round;stroke-width:4px"/><line x1="264.2" y1="37.5" x2="270.2" y2="37.5" style="fill:none;stroke:#eae9da;stroke-linecap:round;stroke-linejoin:round;stroke-width:4px"/><line x1="312.2" y1="85.5" x2="318.2" y2="85.5" style="fill:none;stroke:#eae9da;stroke-linecap:round;stroke-linejoin:round;stroke-width:4px"/><line x1="312.2" y1="77.5" x2="318.2" y2="77.5" style="fill:none;stroke:#eae9da;stroke-linecap:round;stroke-linejoin:round;stroke-width:4px"/><line x1="312.2" y1="69.5" x2="318.2" y2="69.5" style="fill:none;stroke:#eae9da;stroke-linecap:round;stroke-linejoin:round;stroke-width:4px"/><line x1="312.2" y1="61.5" x2="318.2" y2="61.5" style="fill:none;stroke:#eae9da;stroke-linecap:round;stroke-linejoin:round;stroke-width:4px"/><line x1="312.2" y1="53.5" x2="318.2" y2="53.5" style="fill:none;stroke:#eae9da;stroke-linecap:round;stroke-linejoin:round;stroke-width:4px"/><line x1="312.2" y1="45.5" x2="318.2" y2="45.5" style="fill:none;stroke:#eae9da;stroke-linecap:round;stroke-linejoin:round;stroke-width:4px"/><line x1="312.2" y1="37.5" x2="318.2" y2="37.5" style="fill:none;stroke:#eae9da;stroke-linecap:round;stroke-linejoin:round;stroke-width:4px"/><path d="M308.2,90.5h-34a4,4,0,0,1-4-4v-50a4,4,0,0,1,4-4h34a4,4,0,0,1,4,4v50A4,4,0,0,1,308.2,90.5Z" style="fill:#2c5871"/><path d="M274.2,84.8V38.2a1.69,1.69,0,0,1,1.7-1.7h30.6a1.69,1.69,0,0,1,1.7,1.7V84.8a1.69,1.69,0,0,1-1.7,1.7H275.9A1.69,1.69,0,0,1,274.2,84.8Z" style="fill:#3d6d82"/><polyline points="280.9 47.6 280.9 61.5 280.9 74.9" style="fill:none;stroke:#eae9da;stroke-linecap:round;stroke-linejoin:round;stroke-width:2px"/><line x1="285.3" y1="53.5" x2="285.3" y2="69" style="fill:none;stroke:#eae9da;stroke-linecap:round;stroke-linejoin:round"/><line x1="302.7" y1="49.2" x2="302.7" y2="73.2" style="fill:none;stroke:#eae9da;stroke-linecap:round;stroke-linejoin:round"/></svg>